<?xml version="1.0" encoding="UTF-8"?>
<svg
  width="300"
  height="300"
  viewBox="0 0 300 300"
  xmlns="http://www.w3.org/2000/svg"
  role="img"
  aria-labelledby="title desc"
>
  <title id="title">AI Speech Coach Animated Logo</title>
  <desc id="desc">
    Circular badge with a radial blue-to-gold gradient background, a white microphone icon,
    animated pulsing speech waveform above it, subtle microphone bobbing, and “AI SPEECH COACH” label.
  </desc>

  <defs>
    <!-- Background gradient -->
    <radialGradient id="bgGrad" cx="50%" cy="50%" r="%">
      <stop offset="0%" stop-color="#FFCB05"/>
      <stop offset="100%" stop-color="#0057B7"/>
    </radialGradient>

    <!-- Common microphone outline style -->
    <style type="text/css"><![CDATA[
      /* Mic bobbing */
      @keyframes micBob {
        0%, 100% { transform: translateY(0); }
        50%      { transform: translateY(-3px); }
      }
      /* Waveform pulsing */
      @keyframes wavePulse {
        0%, 100% { transform: scaleY(1); }
        50%      { transform: scaleY(1.2); }
      }
      /* Apply animations */
      .mic-group {
        transform-origin: 150px 160px;
        animation: micBob 3s ease-in-out infinite;
      }
      .wave-form {
        transform-origin: 150px 85px;
        animation: wavePulse 2s ease-in-out infinite;
      }
    ]]></style>
  </defs>

  <!-- Background circle -->
  <circle cx="150" cy="150" r="150" fill="url(#bgGrad)" />

  <!-- Animated waveform group -->
  <g id="waveform" class="wave-form" fill="none" stroke-width="4" stroke-linecap="round">
    <!-- Top arc -->
    <path d="M110,80 C140,50 160,50 190,80" stroke="#C0D8FF"/>
    <circle cx="110" cy="80" r="6" fill="#C0D8FF"/>
    <circle cx="190" cy="80" r="6" fill="#C0D8FF"/>
    <!-- Middle arc -->
    <path d="M115,95 C140,70 160,70 185,95" stroke="#A0CFFF"/>
    <circle cx="115" cy="95" r="5" fill="#A0CFFF"/>
    <circle cx="185" cy="95" r="5" fill="#A0CFFF"/>
    <!-- Bottom arc -->
    <path d="M120,110 C140,90 160,90 180,110" stroke="#80BFFF"/>
    <circle cx="120" cy="110" r="4" fill="#80BFFF"/>
    <circle cx="180" cy="110" r="4" fill="#80BFFF"/>
  </g>

  <!-- Microphone and sound‑wave accents -->
  <g id="mic" class="mic-group" fill="none" stroke="#FFFFFF" stroke-width="6" stroke-linecap="round">
    <!-- Mic body -->
    <rect x="140" y="120" width="20" height="60" rx="10" ry="10" fill="none"/>
    <!-- Mic stand arc -->
    <path d="M130,160 Q150,200 170,160" />
    <!-- Stand base -->
    <line x1="150" y1="200" x2="150" y2="220" />
    <line x1="135" y1="220" x2="165" y2="220" />

    <!-- Left & right sound‑wave flicks -->
    <path d="M130,150 C125,145 125,155 130,150" stroke-width="4" stroke="#A0D6FF"/>
    <path d="M170,150 C175,145 175,155 170,150" stroke-width="4" stroke="#FFE680"/>
  </g>

  
</svg>
